<svg width="440" height="440" viewBox="0 0 440 440" fill="none" xmlns="http://www.w3.org/2000/svg">
<mask id="mask0_545_1526" style="mask-type:luminance" maskUnits="userSpaceOnUse" x="0" y="0" width="440" height="440">
<path d="M440 0H0V440H440V0Z" fill="white"/>
</mask>
<g mask="url(#mask0_545_1526)">
<mask id="mask1_545_1526" style="mask-type:luminance" maskUnits="userSpaceOnUse" x="-4" y="-3" width="448" height="446">
<path d="M443.342 -2.72852H-3.34082V442.732H443.342V-2.72852Z" fill="white"/>
</mask>
<g mask="url(#mask1_545_1526)">
<path d="M50.7641 51.3762H-3.34082V-2.72852H50.7638L50.7641 51.3762ZM-2.22971 50.265H49.6527V-1.6174H-2.22971V50.265Z" fill="#11BAF0"/>
<path d="M77.2609 77.8732H23.1562V23.7686H77.2609V77.8732ZM24.2674 76.7621H76.1498V24.8797H24.2674V76.7621Z" fill="#11BAF0"/>
<path d="M133.587 51.3762H79.4824V-2.72852H133.587V51.3762H133.587ZM80.5935 50.265H132.476V-1.6174H80.5935V50.265Z" fill="#11BAF0"/>
<path d="M160.084 77.8732H105.979V23.7686H160.084V77.8732ZM107.091 76.7621H158.973V24.8797H107.091V76.7621Z" fill="#11BAF0"/>
<path d="M216.412 51.3762H162.307V-2.72852H216.411L216.412 51.3762ZM163.418 50.265H215.3V-1.6174H163.418V50.265Z" fill="#11BAF0"/>
<path d="M242.908 77.8732H188.804V23.7686H242.908V77.8732ZM189.915 76.7621H241.797V24.8797H189.915V76.7621Z" fill="#11BAF0"/>
<path d="M299.236 51.3762H245.131V-2.72852H299.236V51.3762ZM246.242 50.265H298.125V-1.6174H246.242V50.265Z" fill="#11BAF0"/>
<path d="M325.733 77.8732H271.628V23.7686H325.733V77.8732ZM272.739 76.7621H324.622V24.8797H272.739V76.7621Z" fill="#11BAF0"/>
<path d="M382.06 51.3762H327.955V-2.72852H382.06V51.3762ZM329.066 50.265H380.949V-1.6174H329.066V50.265Z" fill="#11BAF0"/>
<path d="M408.557 77.8732H354.452V23.7686H408.557V77.8732ZM355.563 76.7621H407.446V24.8797H355.563V76.7621Z" fill="#11BAF0"/>
<path d="M464.883 51.3762H410.778V-2.72852H464.883V51.3762ZM411.889 50.265H463.772V-1.6174H411.889V50.265Z" fill="#11BAF0"/>
<path d="M491.38 77.8732H437.275V23.7686H491.38V77.8732ZM438.387 76.7621H490.269V24.8797H438.387V76.7621Z" fill="#11BAF0"/>
<path d="M50.7641 134.2H-3.34082V80.0947H50.7638L50.7641 134.2ZM-2.22971 133.089H49.6527V81.2058H-2.22971V133.089Z" fill="#11BAF0"/>
<path d="M77.2609 160.696H23.1562V106.592H77.2609V160.696ZM24.2674 159.585H76.1498V107.703H24.2674V159.585Z" fill="#11BAF0"/>
<path d="M133.588 134.2H79.4834V80.0947H133.588V134.2H133.588ZM80.5945 133.089H132.477V81.2058H80.5945V133.089Z" fill="#11BAF0"/>
<path d="M160.085 160.696H105.98V106.592H160.085V160.696ZM107.092 159.585H158.974V107.703H107.092V159.585Z" fill="#11BAF0"/>
<path d="M216.412 134.2H162.307V80.0947H216.411L216.412 134.2ZM163.418 133.089H215.3V81.2058H163.418V133.089Z" fill="#11BAF0"/>
<path d="M242.908 160.696H188.804V106.592H242.908V160.696ZM189.915 159.585H241.797V107.703H189.915V159.585Z" fill="#11BAF0"/>
<path d="M299.236 134.2H245.131V80.0947H299.236V134.2ZM246.242 133.089H298.125V81.2058H246.242V133.089Z" fill="#11BAF0"/>
<path d="M325.733 160.696H271.628V106.592H325.733V160.696ZM272.739 159.585H324.622V107.703H272.739V159.585Z" fill="#11BAF0"/>
<path d="M382.06 134.2H327.955V80.0947H382.06V134.2ZM329.066 133.089H380.949V81.2058H329.066V133.089Z" fill="#11BAF0"/>
<path d="M408.557 160.696H354.452V106.592H408.557V160.696ZM355.563 159.585H407.446V107.703H355.563V159.585Z" fill="#11BAF0"/>
<path d="M464.883 134.2H410.778V80.0947H464.883V134.2ZM411.889 133.089H463.772V81.2058H411.889V133.089Z" fill="#11BAF0"/>
<path d="M491.38 160.696H437.275V106.592H491.38V160.696ZM438.387 159.585H490.269V107.703H438.387V159.585Z" fill="#11BAF0"/>
<path d="M50.7641 217.023H-3.34082V162.918H50.7638L50.7641 217.023ZM-2.22971 215.912H49.6527V164.029H-2.22971V215.912Z" fill="#11BAF0"/>
<path d="M77.2609 243.52H23.1562V189.415H77.2609V243.52ZM24.2674 242.409H76.1498V190.526H24.2674V242.409Z" fill="#11BAF0"/>
<path d="M133.587 217.023H79.4824V162.918H133.587V217.023H133.587ZM80.5935 215.912H132.476V164.029H80.5935V215.912Z" fill="#11BAF0"/>
<path d="M160.084 243.52H105.979V189.415H160.084V243.52ZM107.091 242.409H158.973V190.526H107.091V242.409Z" fill="#11BAF0"/>
<path d="M216.412 217.023H162.307V162.918H216.411L216.412 217.023ZM163.418 215.912H215.3V164.029H163.418V215.912Z" fill="#11BAF0"/>
<path d="M242.908 243.52H188.804V189.415H242.908V243.52ZM189.915 242.409H241.797V190.526H189.915V242.409Z" fill="#11BAF0"/>
<path d="M299.236 217.023H245.131V162.918H299.236V217.023ZM246.242 215.912H298.125V164.029H246.242V215.912Z" fill="#11BAF0"/>
<path d="M325.733 243.52H271.628V189.415H325.733V243.52ZM272.739 242.409H324.622V190.526H272.739V242.409Z" fill="#11BAF0"/>
<path d="M382.06 217.023H327.955V162.918H382.06V217.023ZM329.066 215.912H380.949V164.029H329.066V215.912Z" fill="#11BAF0"/>
<path d="M408.557 243.52H354.452V189.415H408.557V243.52ZM355.563 242.409H407.446V190.526H355.563V242.409Z" fill="#11BAF0"/>
<path d="M464.883 217.023H410.778V162.918H464.883V217.023ZM411.889 215.912H463.772V164.029H411.889V215.912Z" fill="#11BAF0"/>
<path d="M491.38 243.52H437.275V189.415H491.38V243.52ZM438.387 242.409H490.269V190.526H438.387V242.409Z" fill="#11BAF0"/>
<path d="M50.7641 299.847H-3.34082V245.742H50.7638L50.7641 299.847ZM-2.22971 298.736H49.6527V246.853H-2.22971V298.736Z" fill="#11BAF0"/>
<path d="M77.2609 326.344H23.1562V272.239H77.2609V326.344ZM24.2674 325.233H76.1498V273.35H24.2674V325.233Z" fill="#11BAF0"/>
<path d="M133.588 299.847H79.4834V245.742H133.588V299.847H133.588ZM80.5945 298.736H132.477V246.853H80.5945V298.736Z" fill="#11BAF0"/>
<path d="M160.085 326.344H105.98V272.239H160.085V326.344ZM107.092 325.233H158.974V273.35H107.092V325.233Z" fill="#11BAF0"/>
<path d="M216.412 299.847H162.307V245.742H216.411L216.412 299.847ZM163.418 298.736H215.3V246.853H163.418V298.736Z" fill="#11BAF0"/>
<path d="M242.908 326.344H188.804V272.239H242.908V326.344ZM189.915 325.233H241.797V273.35H189.915V325.233Z" fill="#11BAF0"/>
<path d="M299.236 299.847H245.131V245.742H299.236V299.847ZM246.242 298.736H298.125V246.853H246.242V298.736Z" fill="#11BAF0"/>
<path d="M325.733 326.344H271.628V272.239H325.733V326.344ZM272.739 325.233H324.622V273.35H272.739V325.233Z" fill="#11BAF0"/>
<path d="M382.06 299.847H327.955V245.742H382.06V299.847ZM329.066 298.736H380.949V246.853H329.066V298.736Z" fill="#11BAF0"/>
<path d="M408.557 326.344H354.452V272.239H408.557V326.344ZM355.563 325.233H407.446V273.35H355.563V325.233Z" fill="#11BAF0"/>
<path d="M464.883 299.847H410.778V245.742H464.883V299.847ZM411.889 298.736H463.772V246.853H411.889V298.736Z" fill="#11BAF0"/>
<path d="M491.38 326.344H437.275V272.239H491.38V326.344ZM438.387 325.233H490.269V273.35H438.387V325.233Z" fill="#11BAF0"/>
<path d="M50.7641 382.67H-3.34082V328.565H50.7638L50.7641 382.67ZM-2.22971 381.559H49.6527V329.677H-2.22971V381.559Z" fill="#11BAF0"/>
<path d="M77.2609 409.167H23.1562V355.062H77.2609V409.167ZM24.2674 408.056H76.1498V356.174H24.2674V408.056Z" fill="#11BAF0"/>
<path d="M133.587 382.67H79.4824V328.565H133.587V382.67H133.587ZM80.5935 381.559H132.476V329.677H80.5935V381.559Z" fill="#11BAF0"/>
<path d="M160.084 409.167H105.979V355.062H160.084V409.167ZM107.091 408.056H158.973V356.174H107.091V408.056Z" fill="#11BAF0"/>
<path d="M216.412 382.67H162.307V328.565H216.411L216.412 382.67ZM163.418 381.559H215.3V329.677H163.418V381.559Z" fill="#11BAF0"/>
<path d="M242.908 409.167H188.804V355.062H242.908V409.167ZM189.915 408.056H241.797V356.174H189.915V408.056Z" fill="#11BAF0"/>
<path d="M299.236 382.67H245.131V328.565H299.236V382.67ZM246.242 381.559H298.125V329.677H246.242V381.559Z" fill="#11BAF0"/>
<path d="M325.733 409.167H271.628V355.062H325.733V409.167ZM272.739 408.056H324.622V356.174H272.739V408.056Z" fill="#11BAF0"/>
<path d="M382.06 382.67H327.955V328.565H382.06V382.67ZM329.066 381.559H380.949V329.677H329.066V381.559Z" fill="#11BAF0"/>
<path d="M408.557 409.167H354.452V355.062H408.557V409.167ZM355.563 408.056H407.446V356.174H355.563V408.056Z" fill="#11BAF0"/>
<path d="M464.883 382.67H410.778V328.565H464.883V382.67ZM411.889 381.559H463.772V329.677H411.889V381.559Z" fill="#11BAF0"/>
<path d="M491.38 409.167H437.275V355.062H491.38V409.167ZM438.387 408.056H490.269V356.174H438.387V408.056Z" fill="#11BAF0"/>
<path d="M50.7641 465.495H-3.34082V411.39H50.7638L50.7641 465.495ZM-2.22971 464.383H49.6527V412.501H-2.22971V464.383Z" fill="#11BAF0"/>
<path d="M77.2609 491.992H23.1562V437.887H77.2609V491.992ZM24.2674 490.881H76.1498V438.998H24.2674V490.881Z" fill="#11BAF0"/>
<path d="M133.588 465.495H79.4834V411.39H133.588V465.495H133.588ZM80.5945 464.383H132.477V412.501H80.5945V464.383Z" fill="#11BAF0"/>
<path d="M160.085 491.992H105.98V437.887H160.085V491.992ZM107.092 490.881H158.974V438.998H107.092V490.881Z" fill="#11BAF0"/>
<path d="M216.412 465.495H162.307V411.391H216.411L216.412 465.495ZM163.418 464.384H215.3V412.502H163.418V464.384Z" fill="#11BAF0"/>
<path d="M242.908 491.993H188.804V437.888H242.908V491.993ZM189.915 490.881H241.797V438.999H189.915V490.881Z" fill="#11BAF0"/>
<path d="M299.236 465.495H245.131V411.39H299.236V465.495ZM246.242 464.383H298.125V412.501H246.242V464.383Z" fill="#11BAF0"/>
<path d="M325.733 491.992H271.628V437.887H325.733V491.992ZM272.739 490.881H324.622V438.998H272.739V490.881Z" fill="#11BAF0"/>
<path d="M382.06 465.495H327.955V411.391H382.06V465.495ZM329.066 464.384H380.949V412.502H329.066V464.384Z" fill="#11BAF0"/>
<path d="M408.557 491.993H354.452V437.888H408.557V491.993ZM355.563 490.881H407.446V438.999H355.563V490.881Z" fill="#11BAF0"/>
<path d="M464.883 465.495H410.778V411.39H464.883V465.495ZM411.889 464.383H463.772V412.501H411.889V464.383Z" fill="#11BAF0"/>
<path d="M491.38 491.992H437.275V437.887H491.38V491.992ZM438.387 490.881H490.269V438.998H438.387V490.881Z" fill="#11BAF0"/>
</g>
</g>
</svg>
